<svg width="30" height="30" viewBox="0 0 30 30" fill="none" xmlns="http://www.w3.org/2000/svg">
<path d="M29.6666 6.99999V1.66666C29.6666 1.31304 29.5262 0.9739 29.2761 0.723852C29.0261 0.473803 28.6869 0.333328 28.3333 0.333328H1.66665C1.31302 0.333328 0.973885 0.473803 0.723836 0.723852C0.473788 0.9739 0.333313 1.31304 0.333313 1.66666V6.99999H29.6666Z" fill="#2EC5CE"/>
<path d="M0.333313 9.66666V28.3333C0.333313 28.6869 0.473788 29.0261 0.723836 29.2761C0.973885 29.5262 1.31302 29.6667 1.66665 29.6667H8.33331V9.66666H0.333313Z" fill="#D6B1FF"/>
<path d="M11 29.6667H28.3333C28.687 29.6667 29.0261 29.5262 29.2761 29.2761C29.5262 29.0261 29.6667 28.6869 29.6667 28.3333V9.66666H11V29.6667Z" fill="#8C30F5"/>
</svg>
