<svg width="30" height="30" viewBox="0 0 30 30" fill="none" xmlns="http://www.w3.org/2000/svg">
<g id="Group">
<path id="Vector" d="M11.0002 12.3335H1.66683C1.31321 12.3335 0.974068 12.193 0.724019 11.943C0.473971 11.6929 0.333496 11.3538 0.333496 11.0002V1.66683C0.333496 1.31321 0.473971 0.974068 0.724019 0.724019C0.974068 0.473971 1.31321 0.333496 1.66683 0.333496H11.0002C11.3538 0.333496 11.6929 0.473971 11.943 0.724019C12.193 0.974068 12.3335 1.31321 12.3335 1.66683V11.0002C12.3335 11.3538 12.193 11.6929 11.943 11.943C11.6929 12.193 11.3538 12.3335 11.0002 12.3335Z" fill="#8C30F5"/>
<path id="Vector_2" d="M11.0002 29.667H1.66683C1.31321 29.667 0.974068 29.5265 0.724019 29.2765C0.473971 29.0264 0.333496 28.6873 0.333496 28.3337V19.0003C0.333496 18.6467 0.473971 18.3076 0.724019 18.0575C0.974068 17.8075 1.31321 17.667 1.66683 17.667H11.0002C11.3538 17.667 11.6929 17.8075 11.943 18.0575C12.193 18.3076 12.3335 18.6467 12.3335 19.0003V28.3337C12.3335 28.6873 12.193 29.0264 11.943 29.2765C11.6929 29.5265 11.3538 29.667 11.0002 29.667Z" fill="#8C30F5"/>
<path id="Vector_3" d="M16.3335 1.66699H29.6668V4.33366H16.3335V1.66699Z" fill="#2EC5CE"/>
<path id="Vector_4" d="M29.6668 19H16.3335V21.6667H29.6668V19Z" fill="#2EC5CE"/>
<path id="Vector_5" d="M29.6668 25.667H16.3335V28.3337H29.6668V25.667Z" fill="#D6B1FF"/>
<path id="Vector_6" d="M29.6668 8.3335H16.3335V11.0002H29.6668V8.3335Z" fill="#D6B1FF"/>
</g>
</svg>
